<svg width="28" height="24" viewBox="0 0 28 24" fill="none" xmlns="http://www.w3.org/2000/svg">
<path d="M14 4.8C13.6394 4.8 13.3373 4.6848 13.0938 4.4544C12.8495 4.2248 12.7273 3.94 12.7273 3.6V1.2C12.7273 0.86 12.8495 0.5748 13.0938 0.3444C13.3373 0.1148 13.6394 0 14 0C14.3606 0 14.6631 0.1148 14.9075 0.3444C15.151 0.5748 15.2727 0.86 15.2727 1.2V3.6C15.2727 3.94 15.151 4.2248 14.9075 4.4544C14.6631 4.6848 14.3606 4.8 14 4.8ZM20.3 7.26C20.0455 7.02 19.9182 6.74 19.9182 6.42C19.9182 6.1 20.0455 5.82 20.3 5.58L22.0818 3.87C22.3364 3.63 22.6384 3.51 22.988 3.51C23.3384 3.51 23.6409 3.63 23.8955 3.87C24.15 4.11 24.2773 4.39 24.2773 4.71C24.2773 5.03 24.15 5.31 23.8955 5.55L22.0818 7.26C21.8273 7.5 21.5303 7.62 21.1909 7.62C20.8515 7.62 20.5545 7.5 20.3 7.26ZM24.1818 14.4C23.8212 14.4 23.5192 14.2848 23.2756 14.0544C23.0313 13.8248 22.9091 13.54 22.9091 13.2C22.9091 12.86 23.0313 12.5748 23.2756 12.3444C23.5192 12.1148 23.8212 12 24.1818 12H26.7273C27.0879 12 27.3899 12.1148 27.6335 12.3444C27.8778 12.5748 28 12.86 28 13.2C28 13.54 27.8778 13.8248 27.6335 14.0544C27.3899 14.2848 27.0879 14.4 26.7273 14.4H24.1818ZM22.0818 22.53L20.3 20.82C20.0455 20.58 19.9182 20.3 19.9182 19.98C19.9182 19.66 20.0455 19.38 20.3 19.14C20.5545 18.9 20.8515 18.78 21.1909 18.78C21.5303 18.78 21.8273 18.9 22.0818 19.14L23.8955 20.82C24.15 21.06 24.2773 21.3448 24.2773 21.6744C24.2773 22.0048 24.15 22.29 23.8955 22.53C23.6409 22.77 23.3384 22.89 22.988 22.89C22.6384 22.89 22.3364 22.77 22.0818 22.53ZM5.91818 7.26L4.10455 5.55C3.85 5.31 3.72273 5.03 3.72273 4.71C3.72273 4.39 3.85 4.11 4.10455 3.87C4.35909 3.63 4.66158 3.51 5.012 3.51C5.36158 3.51 5.66364 3.63 5.91818 3.87L7.7 5.58C7.95455 5.82 8.08182 6.1 8.08182 6.42C8.08182 6.74 7.95455 7.02 7.7 7.26C7.44545 7.5 7.14848 7.62 6.80909 7.62C6.4697 7.62 6.17273 7.5 5.91818 7.26ZM6.36364 24C4.60303 24 3.10248 23.4152 1.862 22.2456C0.620667 21.0752 0 19.66 0 18C0 16.34 0.620667 14.9248 1.862 13.7544C3.10248 12.5848 4.60303 12 6.36364 12H6.49091C6.78788 10.28 7.63636 8.85 9.03636 7.71C10.4364 6.57 12.0909 6 14 6C16.1212 6 17.9242 6.7 19.4091 8.1C20.8939 9.5 21.6364 11.2 21.6364 13.2C21.6364 14.76 21.1642 16.1548 20.2198 17.3844C19.2763 18.6148 18.0515 19.48 16.5455 19.98C16.503 21.1 16.0525 22.05 15.1938 22.83C14.3343 23.61 13.3 24 12.0909 24H6.36364ZM6.36364 21.6H12.0909C12.6212 21.6 13.0718 21.4248 13.4425 21.0744C13.8142 20.7248 14 20.3 14 19.8C14 19.3 13.8197 18.8752 13.4591 18.5256C13.0985 18.1752 12.653 18 12.1227 18H10.5L9.86364 16.56C9.56667 15.9 9.1 15.3752 8.46364 14.9856C7.82727 14.5952 7.12727 14.4 6.36364 14.4C5.30303 14.4 4.40152 14.75 3.65909 15.45C2.91667 16.15 2.54545 17 2.54545 18C2.54545 19 2.91667 19.85 3.65909 20.55C4.40152 21.25 5.30303 21.6 6.36364 21.6ZM15.9091 17.64C16.8636 17.28 17.6324 16.7048 18.2153 15.9144C18.799 15.1248 19.0909 14.22 19.0909 13.2C19.0909 11.88 18.5924 10.75 17.5955 9.81C16.5985 8.87 15.4 8.4 14 8.4C12.7061 8.4 11.5873 8.7952 10.6438 9.5856C9.69945 10.3752 9.14242 11.36 8.97273 12.54C9.69394 12.84 10.3303 13.25 10.8818 13.77C11.4333 14.29 11.8682 14.9 12.1864 15.6C12.9924 15.6 13.7192 15.79 14.3665 16.17C15.0131 16.55 15.5273 17.04 15.9091 17.64Z" fill="#ECD6D6"/>
</svg>
