<svg width="26" height="26" viewBox="0 0 26 26" fill="none" xmlns="http://www.w3.org/2000/svg">
<path d="M14.5228 23.3871C15.8298 23.3871 17.0947 23.1964 18.3175 22.8149C19.5394 22.4343 20.6586 21.8848 21.6752 21.1662C20.2713 20.709 18.7891 19.9739 17.2283 18.961C15.6667 17.9489 14.2928 16.6808 13.1068 15.1567C11.9208 13.6325 11.0557 11.8632 10.5116 9.84865C9.96648 7.83501 9.98439 5.59797 10.5653 3.13754C8.31428 3.85607 6.47473 5.1024 5.04666 6.87653C3.61859 8.65153 2.90455 10.6713 2.90455 12.9357C2.90455 15.8316 4.03636 18.2977 6.29997 20.334C8.56261 22.3694 11.3035 23.3871 14.5228 23.3871ZM14.5228 26C12.5138 26 10.6258 25.6568 8.85888 24.9705C7.09194 24.2851 5.55495 23.3545 4.24791 22.1787C2.94086 21.0029 1.90635 19.6203 1.14439 18.0308C0.381464 16.4413 0 14.743 0 12.9357C0 9.73499 1.11922 6.91529 3.35766 4.47662C5.59707 2.03796 8.59263 0.557346 12.3443 0.034775C13.0463 -0.0740939 13.5488 0.0726612 13.8518 0.475041C14.1539 0.878291 14.1718 1.40652 13.9055 2.05974C13.1794 3.88873 12.9253 5.73384 13.1431 7.59507C13.3609 9.45716 13.9539 11.1721 14.9221 12.7398C15.8903 14.3075 17.1916 15.6627 18.8258 16.8054C20.4592 17.9489 22.3287 18.7276 24.4345 19.1413C25.2091 19.2937 25.699 19.5876 25.9042 20.0231C26.1105 20.4586 25.9836 20.9158 25.5237 21.3948C24.1925 22.8101 22.5771 23.9315 20.6775 24.7589C18.777 25.5863 16.7254 26 14.5228 26Z" fill="#ECD6D6"/>
</svg>
