<svg width="26" height="24" viewBox="0 0 26 24" fill="none" xmlns="http://www.w3.org/2000/svg">
<path d="M16.7322 0.66153H9.04127C2.0229 0.66153 0.359131 2.18883 0.359131 8.6315V15.6916C0.359131 22.1342 2.0229 23.6615 9.04127 23.6615H16.7322C23.7505 23.6615 25.4143 22.1342 25.4143 15.6916V8.6315C25.4143 2.18883 23.7341 0.66153 16.7322 0.66153ZM20.5859 17.0686H18.7671C18.0781 17.0686 17.8659 16.567 16.6265 15.4141C15.5499 14.4561 15.0731 14.3289 14.8077 14.3289C14.4327 14.3289 14.3262 14.4259 14.3262 14.8981V16.4067C14.3262 16.8113 14.1876 17.0543 13.021 17.0543C11.0918 17.0543 8.95123 15.9834 7.45031 13.9882C5.1868 11.0644 4.56749 8.87443 4.56749 8.42163C4.56749 8.17798 4.67319 7.95015 5.18289 7.95015H7.0056C7.46675 7.95015 7.64213 8.14492 7.82143 8.59772C8.7226 10.9861 10.2235 13.0783 10.8428 13.0783C11.0715 13.0783 11.1772 12.9812 11.1772 12.4458V9.97911C11.1075 8.84137 10.4553 8.74362 10.4553 8.3397C10.4553 8.14492 10.6307 7.95015 10.9117 7.95015H13.7781C14.1657 7.95015 14.3082 8.14492 14.3082 8.56394V11.8916C14.3082 12.251 14.4836 12.3782 14.5892 12.3782C14.8179 12.3782 15.0136 12.251 15.4372 11.8615C16.7463 10.5138 17.6843 8.43601 17.6843 8.43601C17.8064 8.19236 18.0186 7.96452 18.4797 7.96452H20.3024C20.8489 7.96452 20.9711 8.22254 20.8489 8.58191C20.6203 9.55506 18.3897 12.4451 18.3897 12.4451C18.1979 12.7369 18.1243 12.8641 18.3897 13.1897C18.5854 13.4333 19.222 13.9386 19.6455 14.3914C20.4246 15.2035 21.0235 15.8849 21.1833 16.3564C21.3626 16.8243 21.0979 17.0679 20.5835 17.0679L20.5859 17.0686Z" fill="white"/>
</svg>
