<svg width="27" height="25" viewBox="0 0 27 25" fill="none" xmlns="http://www.w3.org/2000/svg">
<path d="M13.2773 0.296088C6.07932 0.296088 0.247803 5.80709 0.247803 12.5992C0.247803 18.0379 3.98076 22.6477 9.15429 24.274C9.80821 24.3901 10.0444 24.0095 10.0444 23.6804C10.0444 23.3882 10.037 22.6154 10.0322 21.5896C6.40588 22.3309 5.64202 19.9356 5.64202 19.9356C5.04836 18.5177 4.19167 18.1371 4.19167 18.1371C3.0125 17.3766 4.28532 17.3927 4.28532 17.3927C5.59153 17.4765 6.27884 18.6576 6.27884 18.6576C7.44091 20.54 9.32774 19.9956 10.0745 19.6788C10.1885 18.886 10.5281 18.3408 10.8978 18.0371C8.00525 17.7288 4.96367 16.6715 4.96367 11.9571C4.96367 10.6107 5.46856 9.51416 6.30327 8.65294C6.15913 8.3446 5.71775 7.09122 6.41809 5.39648C6.41809 5.39648 7.5085 5.06814 10.0012 6.65831C11.0444 6.38533 12.1519 6.24923 13.2586 6.24231C14.3661 6.24923 15.4728 6.3861 16.516 6.65831C18.994 5.06814 20.0836 5.39648 20.0836 5.39648C20.7831 7.09122 20.3418 8.34383 20.2147 8.65294C21.0413 9.51416 21.5462 10.6114 21.5462 11.9571C21.5462 16.6822 18.5005 17.7241 15.6047 18.0248C16.0575 18.3931 16.4818 19.1505 16.4818 20.3001C16.4818 21.9456 16.4655 23.2713 16.4655 23.6719C16.4655 23.9918 16.6935 24.3763 17.3645 24.2525C22.5763 22.6431 26.3052 18.0294 26.3052 12.5984C26.3052 5.80632 20.4737 0.295319 13.2757 0.295319L13.2773 0.296088Z" fill="white"/>
</svg>
